<?xml version="1.0" encoding="UTF-8" standalone="no"?>
<svg
   xmlns:dc="http://purl.org/dc/elements/1.1/"
   xmlns:cc="http://creativecommons.org/ns#"
   xmlns:rdf="http://www.w3.org/1999/02/22-rdf-syntax-ns#"
   xmlns:svg="http://www.w3.org/2000/svg"
   xmlns="http://www.w3.org/2000/svg"
   xmlns:sodipodi="http://sodipodi.sourceforge.net/DTD/sodipodi-0.dtd"
   xmlns:inkscape="http://www.inkscape.org/namespaces/inkscape"
   width="129mm"
   height="115mm"
   viewBox="-147 -94 129 115"
   version="1.1"
   id="svg6"
   sodipodi:docname="inner.svg"
   inkscape:version="1.0.2-2 (e86c870879, 2021-01-15)">
  <metadata
     id="metadata12">
    <rdf:RDF>
      <cc:Work
         rdf:about="">
        <dc:format>image/svg+xml</dc:format>
        <dc:type
           rdf:resource="http://purl.org/dc/dcmitype/StillImage" />
      </cc:Work>
    </rdf:RDF>
  </metadata>
  <defs
     id="defs10" />
  <sodipodi:namedview
     pagecolor="#ffffff"
     bordercolor="#666666"
     borderopacity="1"
     objecttolerance="10"
     gridtolerance="10"
     guidetolerance="10"
     inkscape:pageopacity="0"
     inkscape:pageshadow="2"
     inkscape:window-width="1920"
     inkscape:window-height="1017"
     id="namedview8"
     showgrid="false"
     inkscape:zoom="0.69141465"
     inkscape:cx="117.38111"
     inkscape:cy="351.3953"
     inkscape:window-x="-8"
     inkscape:window-y="-8"
     inkscape:window-maximized="1"
     inkscape:current-layer="svg6" />
  <title
     id="title2">OpenSCAD Model</title>
  <path
     d="m -124.522,20.8319 0.111,-4e-4 0.08,-7e-4 0.095,-0.0011 0.116,-0.0019 0.074,-0.0015 0.111,-0.0026 0.1,-0.0029 0.095,-0.003 0.105,-0.0038 0.089,-0.0036 0.089,-0.004 0.1,-0.0048 0.078,-0.004 0.094,-0.0053 0.126,-0.0075 0.088,-0.0057 0.11,-0.0076 0.073,-0.0053 0.098,-0.0075 0.115,-0.0093 0.057,-0.0048 0.098,-0.0087 0.119,-0.0111 0.104,-0.0101 0.103,-0.0105 0.067,-0.0071 0.108,-0.0119 0.088,-0.01 0.082,-0.0097 0.072,-0.0088 0.118,-0.0148 0.082,-0.0107 0.036,-0.0047 0.087,-0.0118 0.087,-0.0121 0.061,-0.0088 0.117,-0.0172 0.097,-0.0147 0.092,-0.0143 0.112,-0.018 0.066,-0.0109 0.066,-0.011 0.132,-0.0228 0.045,-0.008 0.137,-0.0247 0.106,-0.0198 0.091,-0.0173 0.105,-0.0207 0.056,-0.0111 0.111,-0.0225 0.095,-0.0199 0.065,-0.0138 0.131,-0.0283 0.075,-0.0166 0.1,-0.0226 0.1,-0.0231 0.064,-0.0152 0.105,-0.025 0.105,-0.0255 0.079,-0.0198 0.114,-0.0289 0.075,-0.0192 0.084,-0.0221 0.109,-0.029 0.069,-0.0188 0.089,-0.0244 0.113,-0.0318 0.064,-0.0183 0.114,-0.0327 0.088,-0.026 0.059,-0.0176 0.118,-0.0356 0.078,-0.0241 0.088,-0.0275 0.108,-0.034 0.107,-0.0347 0.156,-0.0513 0.078,-0.0261 0.082,-0.0281 0.093,-0.0317 0.087,-0.0305 0.126,-0.0446 0.063,-0.0227 0.077,-0.028 0.106,-0.0392 0.058,-0.0215 0.096,-0.0363 0.101,-0.0386 0.101,-0.0391 0.086,-0.0339 0.072,-0.0286 0.058,-0.023 0.143,-0.0583 0.081,-0.0335 0.115,-0.0478 0.066,-0.0282 0.076,-0.0325 0.105,-0.0452 0.104,-0.0457 0.138,-0.0611 0.071,-0.032 0.085,-0.0387 0.108,-0.05 0.09,-0.0417 0.08,-0.0377 0.084,-0.0403 0.057,-0.0271 0.112,-0.0546 0.075,-0.0368 0.037,-0.0185 0.103,-0.0513 0.108,-0.0541 0.098,-0.05 0.088,-0.0456 0.102,-0.0534 0.089,-0.0466 0.065,-0.0345 0.083,-0.0448 0.106,-0.0577 0.083,-0.0456 0.102,-0.0562 0.101,-0.0568 0.056,-0.0312 0.087,-0.0497 0.064,-0.037 0.032,-0.0185 0.147,-0.0855 0.114,-0.0675 0.073,-0.0437 0.06,-0.0356 0.091,-0.0553 0.091,-0.0557 0.068,-0.042 0.073,-0.0452 0.122,-0.0768 0.068,-0.0431 0.1,-0.0636 0.063,-0.0408 0.09,-0.0586 0.09,-0.0591 0.059,-0.0386 0.081,-0.0539 0.094,-0.0632 0.063,-0.0425 0.063,-0.0427 0.116,-0.0798 0.08,-0.0558 0.094,-0.0655 0.071,-0.0502 0.054,-0.0379 0.08,-0.0571 0.093,-0.0671 0.058,-0.0417 0.08,-0.0582 0.106,-0.0782 0.084,-0.0623 0.097,-0.0727 0.097,-0.0732 0.07,-0.0536 0.07,-0.0539 0.035,-0.027 0.097,-0.0748 0.101,-0.0788 0.065,-0.0517 0.114,-0.0902 0.087,-0.0699 0.087,-0.0704 0.061,-0.0495 0.065,-0.0533 0.108,-0.0895 0.048,-0.0395 0.091,-0.076 0.086,-0.0727 0.065,-0.0549 0.073,-0.0625 0.108,-0.0926 0.077,-0.067 0.073,-0.0637 0.077,-0.0678 0.082,-0.0719 0.081,-0.0724 0.051,-0.0459 0.068,-0.0615 0.111,-0.1005 0.072,-0.0661 0.098,-0.09 0.051,-0.0472 0.093,-0.0869 0.089,-0.0836 0.076,-0.0719 0.089,-0.0845 0.063,-0.0606 0.067,-0.0649 0.097,-0.0939 0.046,-0.0451 0.05,-0.0494 0.084,-0.0826 0.084,-0.0831 0.1,-0.1003 0.091,-0.0926 0.084,-0.0846 0.062,-0.0637 0.075,-0.0768 0.062,-0.0644 0.099,-0.1034 0.05,-0.0519 0.086,-0.0914 0.087,-0.0918 0.078,-0.0835 0.082,-0.0883 0.058,-0.0622 0.082,-0.0891 0.073,-0.0806 0.058,-0.0629 0.065,-0.0722 0.11,-0.1226 0.045,-0.0501 0.118,-0.1329 0.061,-0.0691 0.069,-0.0786 0.081,-0.093 0.056,-0.0653 0.073,-0.0843 0.088,-0.1035 0.065,-0.0757 0.064,-0.0759 0.081,-0.0954 0.048,-0.0574 0.128,-0.1539 0.088,-0.1065 0.127,-0.1559 0.072,-0.0882 0.099,-0.1231 0.071,-0.0891 0.115,-0.1443 0.063,-0.08002 0.079,-0.10043 0.079,-0.10089 0.051,-0.06583 0.055,-0.0711 0.11,-0.14287 0.082,-0.10764 0.078,-0.10272 0.051,-0.06686 0.069,-0.09275 0.054,-0.07222 0.089,-0.11888 0.042,-0.05694 0.102,-0.14003 0.061,-0.08316 0.056,-0.07807 0.064,-0.08862 0.064,-0.08875 0.071,-0.09936 0.044,-0.06285 0.089,-0.12592 0.026,-0.03677 0.103,-0.14736 0.073,-0.10549 0.047,-0.06867 0.072,-0.10582 0.037,-0.05298 0.086,-0.12736 0.036,-0.05315 0.085,-0.12776 0.085,-0.12805 0.056,-0.08551 0.088,-0.13388 0.077,-0.11808 0.042,-0.06449 0.076,-0.11844 0.065,-0.1025 0.065,-0.10264 0.058,-0.09201 0.047,-0.07587 0.075,-0.11943 0.074,-0.11967 0.063,-0.10354 0.093,-0.1529 0.069,-0.11495 0.046,-0.07673 0.062,-0.10431 0.043,-0.07148 0.068,-0.11563 0.026,-0.04411 0.086,-0.14909 0.064,-0.11068 0.038,-0.06649 0.073,-0.12766 0.035,-0.06114 0.066,-0.1169 0.037,-0.06689 0.075,-0.13401 0.046,-0.0839 0.064,-0.11763 0.055,-0.10102 0.031,-0.05618 0.082,-0.15195 0.048,-0.09022 0.051,-0.09598 0.047,-0.09048 0.042,-0.07926 0.0647,-0.12477 0.0382,-0.07382 0.0613,-0.11945 0.032,-0.06265 0.0636,-0.12549 0.0317,-0.06283 0.0715,-0.14302 0.0597,-0.1204 0.0367,-0.07461 0.0647,-0.13225 0.0475,-0.09792 0.0528,-0.10958 0.036,-0.07511 0.0467,-0.09831 0.0575,-0.12166 0.0624,-0.13348 0.0513,-0.11048 0.0723,-0.15728 0.016,-0.03501 0.0715,-0.15773 0.0473,-0.10536 0.0445,-0.09964 0.0467,-0.105667 0.0362,-0.08229 0.054,-0.123627 0.0179,-0.04126 0.0661,-0.153442 0.0354,-0.082764 0.0527,-0.124328 0.0498,-0.118622 0.0248,-0.059372 0.0665,-0.1605531 0.027,-0.0655213 0.0559,-0.1371916 0.041,-0.101578 0.0337,-0.08374 0.0477,-0.119827 0.0545,-0.138031 0.0422,-0.1082 0.0676,-0.174668 0.03,-0.078428 0.0483,-0.12688 0.0501,-0.13316 0.0339,-0.09091 0.0315,-0.08498 0.0335,-0.09113 0.0555,-0.15214 0.022,-0.06094 0.0482,-0.13425 0.0391,-0.11003 0.0281,-0.07955 0.0428,-0.12257 0.0341,-0.09818 0.0507,-0.14752 0.0376,-0.11084 0.025,-0.07396 0.0331,-0.09875 0.0472,-0.14215 0.0386,-0.11765 0.0262,-0.08058 0.0441,-0.13658 0.0594,-0.18662 0.045,-0.14338 0.0253,-0.08115 0.0366,-0.11877 0.0287,-0.09388 0.0587,-0.19438 0.03539,-0.1186023 0.293011,-0.00318 L -18.054,-4.16599 V -93.05 h -32.915 c -48.052,0 0,0 -48.052,0 h -32.915 v 76.6984 0.0983 l -0.002,0.2072 -0.001,0.1344 -0.001,0.0509 -0.002,0.1306 -0.005,0.2392 -0.006,0.2064 -0.004,0.1338 -0.002,0.0506 -0.008,0.2167 -0.011,0.2381 -0.008,0.1513 -0.008,0.1512 -0.007,0.1151 -0.011,0.1869 -0.009,0.1329 -0.012,0.1614 -0.012,0.1505 -0.017,0.2184 -0.019,0.211 -0.014,0.15 -0.014,0.1499 -0.014,0.132 -0.02,0.1888 -0.016,0.1495 -0.017,0.1422 -0.018,0.1492 -0.027,0.2165 -0.027,0.2056 -0.02,0.1487 -0.005,0.0354 -0.021,0.1485 -0.022,0.1484 -0.019,0.1271 -0.026,0.1693 -0.021,0.1304 -0.021,0.1303 -0.046,0.2673 -0.032,0.1826 -0.023,0.1264 -0.011,0.0596 -0.019,0.10164 -0.029,0.15409 -0.035,0.17846 -0.028,0.13981 -0.028,0.13622 -0.028,0.13609 -0.036,0.16733 -0.032,0.14628 -0.031,0.1392 -0.033,0.14602 -0.05,0.21184 -0.056,0.23582 -0.029,0.11432 -0.007,0.03116 -0.032,0.12805 -0.061,0.23507 -0.048,0.18296 -0.041,0.15175 -0.032,0.11716 -0.039,0.14116 -0.05,0.17883 -0.037,0.12714 -0.043,0.14763 -0.01,0.0343 -0.061,0.2057 -0.057,0.18489 -0.052,0.16759 -0.042,0.13327 -0.034,0.10583 -0.045,0.13988 -0.062,0.18743 -0.042,0.12596 -0.016,0.04763 -0.049,0.14283 -0.069,0.20039 -0.071,0.20014 -0.056,0.15585 -0.052,0.14216 -0.076,0.20624 -0.075,0.19921 -0.06,0.15513 -0.04,0.10446 -0.047,0.11785 -0.07,0.17827 -0.064,0.15792 -0.051,0.12421 -0.015,0.0369 -0.082,0.1978 -0.092,0.21759 -0.064,0.15046 -0.054,0.1236 -0.042,0.0968 -0.056,0.12674 -0.073,0.16327 -0.084,0.18639 -0.064,0.13963 -0.08,0.17268 -0.099,0.20894 -0.071,0.14908 -0.066,0.13568 -0.061,0.125642 -0.093,0.188217 -0.067,0.134796 -0.06,0.117752 -0.038,0.074936 -0.077,0.149185 -0.07,0.132202 -0.054,0.1026768 -0.051,0.0958405 -0.045,0.0827637 -0.029,0.053955 -0.053,0.09491 -0.05,0.091385 -0.068,0.122314 -0.08,0.14032 -0.06,0.105438 -0.043,0.074127 -0.078,0.132187 -0.07,0.119203 -0.044,0.07303 -0.079,0.13022 -0.083,0.13542 -0.061,0.09875 -0.045,0.07152 -0.078,0.12457 -0.07,0.10912 -0.038,0.05873 -0.082,0.12569 -0.073,0.11041 -0.039,0.05786 -0.089,0.13242 -0.099,0.14575 -0.053,0.0767 -0.044,0.06228 -0.089,0.1267 -0.086,0.12027 -0.062,0.08622 -0.058,0.08026 -0.086,0.11561 -0.081,0.10941 -0.045,0.05987 -0.095,0.12452 -0.073,0.09413 -0.075,0.09627 -0.056,0.07182 -0.091,0.11375 -0.084,0.10511 -0.073,0.08879 -0.066,0.08052 -0.077,0.09298 -0.08,0.09499 -0.048,0.0562 -0.1,0.11682 -0.092,0.10588 -0.071,0.08015 -0.062,0.06977 -0.08,0.08922 -0.025,0.02714 -0.064,0.07132 -0.063,0.06851 -0.102,0.10941 -0.068,0.07245 -0.052,0.05528 -0.099,0.10274 -0.092,0.09485 -0.02,0.02125 -0.088,0.08933 -0.084,0.08404 -0.063,0.06267 -0.085,0.08307 -0.051,0.05049 -0.107,0.10261 -0.078,0.07471 -0.027,0.0248 -0.062,0.05839 -0.067,0.06256 -0.113,0.10427 -0.092,0.0836 -0.078,0.06992 -0.073,0.06514 -0.118,0.10342 -0.074,0.06413 -0.052,0.04466 -0.122,0.10347 -0.087,0.07328 -0.091,0.07481 -0.083,0.06809 -0.078,0.06353 -0.064,0.05094 -0.104,0.08294 -0.11,0.08622 -0.096,0.07354 -0.054,0.04148 -0.114,0.08629 -0.115,0.08546 -0.089,0.06546 -0.06,0.04399 -0.116,0.08354 -0.09,0.06398 -0.061,0.04299 -0.12,0.08346 -0.121,0.0826 -0.086,0.0582 -0.076,0.05055 -0.125,0.08233 -0.109,0.07085 -0.077,0.04918 -0.074,0.0471 -0.127,0.07953 -0.1,0.0616 -0.103,0.06273 -0.092,0.05545 -0.101,0.05995 -0.084,0.04953 -0.088,0.05078 -0.107,0.06168 -0.035,0.01935 -0.085,0.04809 -0.069,0.0382 -0.123,0.06781 -0.104,0.05616 -0.051,0.02787 -0.145,0.07669 -0.096,0.05002 -0.073,0.03758 -0.112,0.05659 -0.123,0.06185 -0.113,0.0553 -0.062,0.03028 -0.137,0.06568 -0.11,0.05217 -0.027,0.0126 -0.093,0.04314 -0.072,0.03309 -0.115,0.05191 0.002,0.00446 0.056,0.12407 0.021,0.04637 0.056,0.11882 0.032,0.068 0.048,0.0984 0.035,0.0697 0.051,0.102 0.032,0.0627 0.048,0.0906 0.036,0.0688 0.053,0.0985 0.043,0.0789 0.036,0.0638 0.048,0.0849 0.046,0.0803 0.048,0.0821 0.027,0.0462 0.067,0.1109 0.033,0.0542 0.062,0.0998 0.041,0.0642 0.063,0.099 0.036,0.0555 0.069,0.1045 0.034,0.051 0.072,0.1057 0.042,0.0608 0.061,0.0868 0.05,0.0704 0.065,0.0902 0.054,0.0738 0.053,0.0716 0.051,0.0674 0.069,0.0908 0.065,0.0826 0.088,0.1115 0.043,0.0545 0.081,0.099 0.033,0.0406 0.09,0.1079 0.046,0.0537 0.085,0.0993 0.039,0.0438 0.081,0.093 0.054,0.0604 0.081,0.0884 0.046,0.0506 0.083,0.0896 0.063,0.0669 0.06,0.063 0.054,0.0554 0.043,0.0441 0.104,0.1064 0.048,0.0474 0.09,0.0891 0.042,0.0416 0.103,0.0992 0.038,0.0359 0.112,0.1055 0.04,0.0374 0.104,0.0958 0.057,0.0512 0.088,0.0791 0.056,0.0491 0.099,0.0872 0.063,0.0538 0.093,0.0795 0.063,0.0534 0.078,0.0651 0.095,0.0785 0.145,0.1171 0.061,0.0489 0.096,0.0755 0.062,0.0485 0.089,0.0683 0.054,0.0415 0.123,0.0924 0.068,0.051 0.102,0.0752 0.054,0.0391 0.117,0.0843 0.066,0.0468 0.109,0.0771 0.062,0.0432 0.102,0.0701 0.082,0.0554 0.096,0.0647 0.104,0.0691 0.064,0.0421 0.134,0.0871 0.147,0.0942 0.051,0.0322 0.128,0.0795 0.071,0.0441 0.126,0.0771 0.053,0.0317 0.145,0.0869 0.054,0.0313 0.127,0.0742 0.071,0.0414 0.118,0.0676 0.086,0.0482 0.12,0.0669 0.089,0.0492 0.129,0.0705 0.117,0.0629 0.163,0.0866 0.102,0.0536 0.144,0.0743 0.178,0.0903 0.197,0.0978 0.075,0.0369 0.137,0.0667 0.042,0.0203 0.11,0.0524 0.149,0.0706 0.143,0.0671 0.093,0.0429 0.135,0.062 0.181,0.0815 0.16,0.0715 0.133,0.0583 0.136,0.0588 0.036,0.0158 0.119,0.0507 0.172,0.0727 0.125,0.0518 0.178,0.0731 0.213,0.0854 0.158,0.0627 0.156,0.0607 0.12,0.0457 0.053,0.0205 0.117,0.0439 0.142,0.0528 0.131,0.0479 0.222,0.0798 0.225,0.0789 0.131,0.0452 0.131,0.0444 0.052,0.0172 0.137,0.0455 0.154,0.0503 0.131,0.0422 0.178,0.0558 0.234,0.072 0.129,0.0387 0.167,0.0489 0.123,0.0357 0.043,0.0123 0.146,0.0413 0.15,0.0413 0.123,0.0335 0.207,0.0549 0.199,0.0512 0.164,0.0412 0.135,0.0332 0.142,0.0339 0.034,0.0082 0.156,0.0363 0.127,0.029 0.145,0.0322 0.205,0.0444 0.214,0.0447 0.194,0.0391 0.142,0.0277 0.122,0.0231 0.139,0.0259 0.125,0.0225 0.16,0.028 0.177,0.03 0.145,0.0238 0.152,0.0239 0.16,0.0244 0.137,0.0201 0.14,0.0199 0.154,0.0211 0.123,0.0162 0.24,0.03 0.204,0.0239 0.164,0.0182 0.158,0.0166 0.138,0.0137 0.167,0.0157 0.141,0.0125 0.158,0.0132 0.112,0.0088 0.238,0.0173 0.188,0.0122 0.173,0.0102 0.136,0.0072 0.038,0.002 0.13,0.0061 0.15,0.0064 0.145,0.0054 0.248,0.0075 0.221,0.005 0.163,0.0025 0.133,0.0014 0.133,8e-4 0.144,2e-4 z"
     stroke="#000000"
     fill="#d3d3d3"
     stroke-width="0.5"
     id="path4"
     sodipodi:nodetypes="ccccccccccccccccccccccccccccccccccccccccccccccccccccccccccccccccccccccccccccccccccccccccccccccccccccccccccccccccccccccccccccccccccccccccccccccccccccccccccccccccccccccccccccccccccccccccccccccccccccccccccccccccccccccccccccccccccccccccccccccccccccccccccccccccccccccccccccccccccccccccccccccccccccccccccccccccccccccccccccccccccccccccccccccccccccccccccccccccccccccccccccccccccccccccccccccccccccccccccccccccccccccccccccccccccccccccccccccccccccccccccccccccccccccccccccccccccccccccccccccccccccccccccccccccccccccccccccccccccccccccccccccccccccccccccccccccccccccccccccccccccccccccccccccccccccccccccccccccccccccccccccccccccccccccccccccccccccccccccccccccccccccccccccccccccccccccccccccccccccccccccccccccccccccccccccccccccccccccccccccccccccccccccccccccccccccccccccccccccccccccccccccccccccccccccccccccccccccccccccccccccccccccccccccccc" />
</svg>
